<svg width="40" height="40" viewBox="0 0 40 40" fill="none" xmlns="http://www.w3.org/2000/svg">
<circle cx="20" cy="20" r="20" fill="white"/>
<path d="M20 38C30.4934 38 39 29.4934 39 19C39 8.50659 30.4934 0 20 0C9.50659 0 1 8.50659 1 19C1 29.4934 9.50659 38 20 38Z" fill="#0052B4" stroke="white" stroke-width="2"/>
<path d="M9.99805 13H7.99805V11H9.99805V13Z" fill="white"/>
<path d="M10.998 12H8.99805V10H10.998V12Z" fill="white"/>
<path d="M11.998 11H9.99805V9H11.998V11Z" fill="white"/>
<path d="M12.998 11H10.998V9H12.998V11Z" fill="white"/>
<path d="M13.998 10H11.998V8H13.998V10Z" fill="white"/>
<path d="M14.998 10H12.998V8H14.998V10Z" fill="white"/>
<path d="M15.998 10H13.998V8H15.998V10Z" fill="white"/>
<path d="M16.998 9H14.998V7H16.998V9Z" fill="white"/>
<path d="M17.998 9H15.998V7H17.998V9Z" fill="white"/>
<path d="M18.998 9H16.998V7H18.998V9Z" fill="white"/>
<path d="M19.998 9H17.998V7H19.998V9Z" fill="white"/>
<path d="M20.998 9H18.998V7H20.998V9Z" fill="white"/>
<path d="M21.998 9H19.998V7H21.998V9Z" fill="white"/>
<path d="M22.998 9H20.998V7H22.998V9Z" fill="white"/>
<path d="M23.998 9H21.998V7H23.998V9Z" fill="white"/>
<p/svg>
<path d="M20 26C23.3137 26 26 23.3137 26 20C26 16.6863 23.3137 14 20 14C16.6863 14 14 16.6863 14 20C14 23.3137 16.6863 26 20 26Z" fill="#FF6A00"/>
</svg>
